<svg width="40" height="40" viewBox="0 0 40 40" fill="none" xmlns="http://www.w3.org/2000/svg">
  <path
    d="M24.7479 26.1C28.7629 26.1 32.0289 22.834 32.0289 18.821C32.0289 14.804 28.7619 11.538 24.7479 11.538C20.7329 11.538 17.4659 14.805 17.4659 18.821C17.4659 22.834 20.7329 26.1 24.7479 26.1V26.1ZM24.7479 12.736C26.3605 12.7384 27.9063 13.3802 29.0463 14.5208C30.1863 15.6613 30.8273 17.2074 30.8289 18.82C30.8271 20.4321 30.1858 21.9777 29.0457 23.1175C27.9057 24.2574 26.36 24.8984 24.7479 24.9C23.1357 24.8984 21.59 24.2574 20.4498 23.1176C19.3096 21.9778 18.668 20.4322 18.6659 18.82C18.6669 15.466 21.3949 12.736 24.7479 12.736ZM38.0449 32.992C37.7259 27.308 32.5619 26.96 32.4769 26.957L16.9849 26.958C16.9329 26.96 11.7679 27.309 11.4499 33.025V37.333C11.4499 37.4921 11.5131 37.6447 11.6257 37.7573C11.7382 37.8698 11.8908 37.933 12.0499 37.933H37.4449C37.6041 37.933 37.7567 37.8698 37.8692 37.7573C37.9817 37.6447 38.0449 37.4921 38.0449 37.333V32.992ZM36.8459 36.733H12.6509L12.6499 33.058C12.9059 28.463 16.8839 28.165 17.0179 28.156L32.4419 28.155C32.6109 28.166 36.5879 28.464 36.8449 33.025V36.733H36.8459ZM12.6179 18.943H12.6219C13.8549 18.934 14.9229 18.492 15.7959 17.627C16.6699 16.754 17.1119 15.686 17.1119 14.451C17.1119 13.21 16.6689 12.14 15.7959 11.274C14.9219 10.401 13.8539 9.95801 12.6199 9.95801C11.3789 9.95801 10.3089 10.401 9.44493 11.273C8.57093 12.14 8.12793 13.21 8.12793 14.451C8.12793 15.685 8.57093 16.754 9.44393 17.626C10.3099 18.492 11.3769 18.935 12.6179 18.943V18.943ZM9.97693 11.804C10.7069 11.067 11.5729 10.708 12.6209 10.708C13.6629 10.708 14.5289 11.067 15.2679 11.807C16.0049 12.537 16.3639 13.403 16.3639 14.452C16.3639 15.495 16.0049 16.36 15.2679 17.096C14.5309 17.827 13.6639 18.187 12.6209 18.195C11.5709 18.187 10.7049 17.829 9.97493 17.097C9.23693 16.361 8.87793 15.495 8.87793 14.452C8.87793 13.402 9.23693 12.537 9.97693 11.804V11.804Z"
    fill="black"/>
  <path
    d="M12.0392 16.15C12.1069 16.2095 12.1941 16.2422 12.2842 16.242C12.3378 16.2419 12.3908 16.2303 12.4396 16.208C12.4884 16.1858 12.5319 16.1534 12.5672 16.113L15.1062 13.203C15.1715 13.1281 15.2043 13.0303 15.1974 12.9312C15.1906 12.8321 15.1446 12.7397 15.0697 12.6745C14.9948 12.6093 14.897 12.5764 14.7979 12.5833C14.6988 12.5901 14.6065 12.6361 14.5412 12.711L12.2482 15.339L11.1202 14.364C11.083 14.3318 11.0399 14.3073 10.9933 14.2918C10.9466 14.2763 10.8974 14.2701 10.8483 14.2736C10.7993 14.2772 10.7515 14.2903 10.7075 14.3124C10.6636 14.3344 10.6244 14.3648 10.5922 14.402C10.56 14.4392 10.5355 14.4823 10.52 14.5289C10.5045 14.5756 10.4983 14.6248 10.5019 14.6739C10.5054 14.7229 10.5185 14.7708 10.5406 14.8147C10.5626 14.8586 10.593 14.8978 10.6302 14.93L12.0392 16.15V16.15ZM20.1302 9.8C20.1302 9.8 20.3042 9.55 20.7482 9.4C21.0912 9.284 21.3102 9.249 21.3102 9.249V6.33C21.3102 5.562 20.7422 4.896 19.8762 4.896H17.6822V6.076H20.1302V9.8ZM8.99321 7.793H16.2342C16.6042 7.793 16.9512 7.533 16.9512 7.062V5.35C16.9512 4.698 16.4322 4.165 15.7812 4.165H15.5032C15.1812 2.915 13.9592 2 12.6062 2C11.2532 2 10.0312 2.915 9.71021 4.165H9.44621C8.79521 4.165 8.26221 4.698 8.26221 5.35V7.062C8.26221 7.486 8.57121 7.793 8.99321 7.793V7.793ZM12.6062 3.448C13.4082 3.448 14.0542 4.094 14.0542 4.896C14.0542 5.698 13.4082 6.344 12.6062 6.344C12.4159 6.3444 12.2275 6.30721 12.0516 6.23458C11.8758 6.16195 11.716 6.05531 11.5814 5.92077C11.4469 5.78623 11.3403 5.62645 11.2676 5.45059C11.195 5.27474 11.1578 5.08626 11.1582 4.896C11.1582 4.094 11.8042 3.448 12.6062 3.448V3.448Z"
    fill="black"/>
  <path
    d="M15.9521 22.558H5.09613V6.076H7.54413V4.896H5.35113C4.58313 4.896 3.93213 5.561 3.93213 6.33V22.318C3.93213 23.086 4.58313 23.722 5.35113 23.722H17.0791C17.0791 23.723 16.1911 23.355 15.9521 22.558V22.558Z"
    fill="black"/>
</svg>
