<svg width="36" height="36" viewBox="0 0 36 36" fill="none" xmlns="http://www.w3.org/2000/svg">
  <path
    d="M33.59 6.19005C33.4673 6.09024 33.3226 6.02097 33.1679 5.98794C33.0132 5.95492 32.8528 5.95907 32.7 6.00005L23.09 9.00005L13.46 4.11005C13.3284 4.04913 13.1851 4.01758 13.04 4.01758C12.895 4.01758 12.7516 4.04913 12.62 4.11005L2.62001 8.20005C2.43582 8.27572 2.27841 8.40466 2.16795 8.57035C2.05749 8.73603 1.99902 8.93093 2.00001 9.13005V29.6101C2.00083 29.7738 2.04186 29.9349 2.1195 30.0791C2.19715 30.2233 2.30902 30.3463 2.4453 30.4371C2.58158 30.528 2.73808 30.584 2.90107 30.6002C3.06405 30.6164 3.22851 30.5923 3.38001 30.5301L13 26.5801L22.59 31.5001C22.7323 31.573 22.8901 31.6107 23.05 31.6101C23.1494 31.6251 23.2506 31.6251 23.35 31.6101L33.35 28.4901C33.5607 28.424 33.7437 28.2901 33.8703 28.1092C33.9969 27.9284 34.0601 27.7106 34.05 27.4901V7.00005C34.0448 6.83785 34.0002 6.67934 33.9201 6.53822C33.8399 6.3971 33.7267 6.27761 33.59 6.19005V6.19005ZM32 26.7501L23.68 29.3501V27.0601H22.08V29.0601L13.68 24.7501V23.0601H12.08V24.7801L4.00001 28.1101V9.79005L12.08 6.46005V8.81005H13.68V6.47005L22.08 10.7701V12.8701H23.68V11.0001L32 8.36005V26.7501Z"
    fill="black"/>
  <path d="M22.0801 15.0601H23.6801V18.8701H22.0801V15.0601Z" fill="black"/>
  <path d="M22.0801 21.0601H23.6801V24.8701H22.0801V21.0601Z" fill="black"/>
  <path d="M12.0801 11.0601H13.6801V14.8701H12.0801V11.0601Z" fill="black"/>
  <path d="M12.0801 17.13H13.6801V20.88H12.0801V17.13Z" fill="black"/>
</svg>
