<svg width="64" height="64" viewBox="0 0 64 64" fill="none" xmlns="http://www.w3.org/2000/svg">
<path d="M32 2L2 19.887V44.08L32 62L62 44.08V19.92L32 2ZM32 4.109L59.298 20.416L48.225 27.029L21.027 10.651L32 4.109ZM31.091 59.348L3.818 43.057V21.998L31.09 38.287V59.348H31.091ZM4.677 20.401L15.612 13.881L43.069 30.109L32 36.721L4.677 20.401ZM60.182 43.057L49.12 49.664V42.371L43.967 45.449V52.742L32.909 59.347V38.287L43.967 31.694V38.971L49.12 35.894V28.622L60.182 22.027V43.057V43.057Z" fill="black"/>
<path d="M26.8032 8.46999L33.2322 12.397L38.6562 9.16198L32.2282 5.23499L26.8032 8.46999ZM59.6882 23.045L54.5352 26.117V34.45L59.6882 31.373V23.045ZM33.7102 57.932L40.7412 53.732V42.371L33.7102 46.563V57.932Z" fill="black"/>
</svg>
